<svg xmlns="http://www.w3.org/2000/svg" viewBox="0 0 32 32">
  <!-- skull -->
  <path d="M16 3.5c-6.7 0-11.2 4.6-11.2 10.8 0 3.9 1.7 6.3 3.9 8.1v2.8c0 1.1.9 2 2 2h1.2v-2h1.7v2h1.5v-2h1.8v2h1.5v-2h1.7v2h1.2c1.1 0 2-.9 2-2v-2.8c2.2-1.8 3.9-4.2 3.9-8.1C27.2 8.1 22.7 3.5 16 3.5z" fill="#ff4d4d"/>
  <!-- eye sockets -->
  <ellipse cx="11.6" cy="14.2" rx="3" ry="3.3" fill="#0c1118"/>
  <ellipse cx="20.4" cy="14.2" rx="3" ry="3.3" fill="#0c1118"/>
  <!-- nose -->
  <path d="M16 17.6l-1.7 3.1h3.4z" fill="#0c1118"/>
</svg>
